<svg id="Layer_1" data-name="Layer 1" xmlns="http://www.w3.org/2000/svg" viewBox="0 0 249.51426 38.02857"><defs><style>.cls-1{fill:#defffe;}.cls-2,.cls-3{fill:none;stroke:#defffe;stroke-linejoin:bevel;}.cls-2{stroke-linecap:square;stroke-width:2px;}</style></defs><title>logo</title><path class="cls-1" d="M184.57617,267l-2.06738-5.749h-7.91553L172.56836,267H169l7.74561-20.78711h3.68164L188.17285,267Zm-2.95947-8.666-1.93994-5.63574q-.2124-.56616-.58789-1.78418-.375-1.218-.5166-1.78418a31.77294,31.77294,0,0,1-1.11866,3.80908l-1.86914,5.395Z" transform="translate(-123.03848 -235.95201)"/><path class="cls-1" d="M196.86719,267.2832a6.85823,6.85823,0,0,1-5.40235-2.07422,10.51622,10.51622,0,0,1,.085-12.02929,7.17106,7.17106,0,0,1,5.58643-2.124,10.46793,10.46793,0,0,1,4.46045.92041l-1.00537,2.67627a10.08343,10.08343,0,0,0-3.4834-.82129q-4.06421,0-4.064,5.39551a6.45649,6.45649,0,0,0,1.01269,3.957,3.50383,3.50383,0,0,0,2.96631,1.32422,8.512,8.512,0,0,0,4.20557-1.10449v2.90332a6.57114,6.57114,0,0,1-1.9043.75A11.47473,11.47473,0,0,1,196.86719,267.2832Z" transform="translate(-123.03848 -235.95201)"/><path class="cls-1" d="M211.22559,267.2832a6.85822,6.85822,0,0,1-5.40235-2.07422,10.51622,10.51622,0,0,1,.085-12.02929,7.17106,7.17106,0,0,1,5.58643-2.124,10.468,10.468,0,0,1,4.46045.92041l-1.00537,2.67627a10.08343,10.08343,0,0,0-3.4834-.82129q-4.0642,0-4.064,5.39551a6.45649,6.45649,0,0,0,1.0127,3.957,3.50382,3.50382,0,0,0,2.96631,1.32422,8.51192,8.51192,0,0,0,4.20556-1.10449v2.90332a6.571,6.571,0,0,1-1.90429.75A11.47479,11.47479,0,0,1,211.22559,267.2832Z" transform="translate(-123.03848 -235.95201)"/><path class="cls-1" d="M233.15967,259.14062a8.55043,8.55043,0,0,1-1.96826,5.99024,7.04956,7.04956,0,0,1-5.48,2.15234,7.50523,7.50523,0,0,1-3.87989-.99121,6.54134,6.54134,0,0,1-2.59131-2.84668,9.693,9.693,0,0,1-.90625-4.30469,8.48917,8.48917,0,0,1,1.95411-5.94677,7.08544,7.08544,0,0,1,5.5083-2.13819,6.90112,6.90112,0,0,1,5.38086,2.1875A8.45137,8.45137,0,0,1,233.15967,259.14062Zm-11.39893,0q0,5.42433,4.00733,5.42383,3.96459,0,3.96484-5.42383,0-5.36571-3.99316-5.36621a3.40527,3.40527,0,0,0-3.0376,1.3877A7.06549,7.06549,0,0,0,221.76074,259.14062Z" transform="translate(-123.03848 -235.95201)"/><path class="cls-1" d="M248.02783,267l-.46728-2.05273h-.16993a4.7275,4.7275,0,0,1-1.97509,1.71289,6.59693,6.59693,0,0,1-2.92432.623,5.74269,5.74269,0,0,1-4.24805-1.416,5.86924,5.86924,0,0,1-1.40185-4.291v-10.2373h3.356v9.65722a4.18948,4.18948,0,0,0,.73632,2.69727,2.8105,2.8105,0,0,0,2.30811.89941,3.67706,3.67706,0,0,0,3.08008-1.25293,6.91067,6.91067,0,0,0,.98388-4.19922v-7.80175h3.3418V267Z" transform="translate(-123.03848 -235.95201)"/><path class="cls-1" d="M269.169,267h-3.3418v-9.62891a4.21292,4.21292,0,0,0-.72949-2.70459,2.8184,2.8184,0,0,0-2.31446-.89209,3.68418,3.68418,0,0,0-3.08789,1.2461,6.88708,6.88708,0,0,0-.97656,4.17676V267h-3.32764V251.33887h2.605l.46778,2.05322h.16992a4.62744,4.62744,0,0,1,2.01074-1.72754,6.745,6.745,0,0,1,2.88867-.60889q5.63673,0,5.63575,5.73487Z" transform="translate(-123.03848 -235.95201)"/><path class="cls-1" d="M279.63281,264.59277a8.11767,8.11767,0,0,0,2.43555-.38183v2.50586a6.70687,6.70687,0,0,1-1.42188.40332,9.8434,9.8434,0,0,1-1.80664.16308q-4.72851,0-4.72851-4.98437v-8.43945h-2.13867v-1.47266l2.29394-1.21777,1.13281-3.31348h2.05371v3.4834h4.46v2.52051h-4.46v8.38281a2.352,2.352,0,0,0,.60157,1.77734A2.19425,2.19425,0,0,0,279.63281,264.59277Z" transform="translate(-123.03848 -235.95201)"/><path class="cls-1" d="M304.88086,246.29785h3.51172L301.14258,267h-3.56836l-7.22168-20.70215h3.4834l4.31836,12.87207q.33984.91992.72265,2.3711.38233,1.45165.4961,2.16015.18311-1.07665.5664-2.49219.38086-1.41649.623-2.0957Z" transform="translate(-123.03848 -235.95201)"/><path class="cls-1" d="M310.57324,247.18994a1.844,1.844,0,0,1,.48828-1.37353,1.90642,1.90642,0,0,1,1.39551-.48145,1.86447,1.86447,0,0,1,1.36621.48145,1.844,1.844,0,0,1,.48828,1.37353,1.81134,1.81134,0,0,1-.48828,1.33838,1.84973,1.84973,0,0,1-1.36621.48828,1.89107,1.89107,0,0,1-1.39551-.48828A1.81138,1.81138,0,0,1,310.57324,247.18994ZM314.09961,267h-3.32813V251.33887h3.32813Z" transform="translate(-123.03848 -235.95201)"/><path class="cls-1" d="M329.37793,262.53906a4.1005,4.1005,0,0,1-1.6709,3.51953,8.00012,8.00012,0,0,1-4.78613,1.22461,11.29514,11.29514,0,0,1-5.02637-.94922V263.46a12.33586,12.33586,0,0,0,5.13965,1.27442q3.07178,0,3.07324-1.85547a1.46579,1.46579,0,0,0-.33984-.99024,4.01407,4.01407,0,0,0-1.11914-.82226,19.40812,19.40812,0,0,0-2.166-.96289,9.99612,9.99612,0,0,1-3.66015-2.09571,3.87,3.87,0,0,1-.957-2.71826,3.57328,3.57328,0,0,1,1.6211-3.12256,7.70186,7.70186,0,0,1,4.41211-1.11133,12.49637,12.49637,0,0,1,5.22461,1.11866l-1.07617,2.50634a11.616,11.616,0,0,0-4.26172-1.04785q-2.63379,0-2.63477,1.501a1.51068,1.51068,0,0,0,.6875,1.24609,15.03482,15.03482,0,0,0,2.99414,1.40137,13.744,13.744,0,0,1,2.81836,1.374,4.095,4.095,0,0,1,1.30273,1.4375A4.1551,4.1551,0,0,1,329.37793,262.53906Z" transform="translate(-123.03848 -235.95201)"/><path class="cls-1" d="M332.77637,247.18994a1.844,1.844,0,0,1,.48828-1.37353,1.90639,1.90639,0,0,1,1.39551-.48145,1.86447,1.86447,0,0,1,1.36621.48145,1.844,1.844,0,0,1,.48828,1.37353,1.81138,1.81138,0,0,1-.48828,1.33838,1.84973,1.84973,0,0,1-1.36621.48828,1.891,1.891,0,0,1-1.39551-.48828A1.81134,1.81134,0,0,1,332.77637,247.18994ZM336.30273,267h-3.32812V251.33887h3.32812Z" transform="translate(-123.03848 -235.95201)"/><path class="cls-1" d="M354.95117,259.14062a8.54832,8.54832,0,0,1-1.96875,5.99024,7.04844,7.04844,0,0,1-5.47949,2.15234,7.50267,7.50267,0,0,1-3.87988-.99121,6.54811,6.54811,0,0,1-2.5918-2.84668,9.6996,9.6996,0,0,1-.90625-4.30469,8.48952,8.48952,0,0,1,1.95508-5.94677,7.085,7.085,0,0,1,5.50781-2.13819,6.90181,6.90181,0,0,1,5.38086,2.1875A8.449,8.449,0,0,1,354.95117,259.14062Zm-11.39844,0q0,5.42433,4.00684,5.42383,3.96533,0,3.96484-5.42383,0-5.36571-3.99316-5.36621a3.40383,3.40383,0,0,0-3.03711,1.3877A7.06147,7.06147,0,0,0,343.55273,259.14062Z" transform="translate(-123.03848 -235.95201)"/><path class="cls-1" d="M372.55273,267h-3.34179v-9.62891a4.21877,4.21877,0,0,0-.72949-2.70459,2.8205,2.8205,0,0,0-2.31543-.89209,3.68216,3.68216,0,0,0-3.08692,1.2461,6.8794,6.8794,0,0,0-.97754,4.17676V267h-3.32715V251.33887h2.60547l.46778,2.05322h.16992a4.63027,4.63027,0,0,1,2.00976-1.72754,6.745,6.745,0,0,1,2.88868-.60889q5.63671,0,5.63671,5.73487Z" transform="translate(-123.03848 -235.95201)"/><polygon class="cls-2" points="42.376 0.995 0.962 5.048 8.962 33.048 28.962 37.048 42.376 0.995"/><line class="cls-3" x1="2.08652" y1="5.58966" x2="28.79486" y2="36.46466"/></svg>