<?xml version="1.0" encoding="UTF-8"?>
<svg width="381px" height="65px" viewBox="0 0 381 65" version="1.1" xmlns="http://www.w3.org/2000/svg" xmlns:xlink="http://www.w3.org/1999/xlink">
    <!-- Generator: Sketch 49 (51002) - http://www.bohemiancoding.com/sketch -->
    <title>logo copy 4</title>
    <desc>Created with Sketch.</desc>
    <defs></defs>
    <g id="Page-1" stroke="none" stroke-width="1" fill="none" fill-rule="evenodd">
        <g id="logo-copy-4" transform="translate(2.000000, 2.000000)">
            <path d="M76.028,52.52 L87.212,20.84 C87.308,20.552 87.5,20.36 87.836,20.36 L92.252,20.36 C92.588,20.36 92.78,20.552 92.876,20.84 L103.916,52.52 C104.012,52.808 103.916,53 103.58,53 L98.876,53 C98.54,53 98.348,52.856 98.252,52.52 L96.092,46.184 L83.804,46.184 L81.644,52.52 C81.548,52.856 81.356,53 81.02,53 L76.364,53 C76.028,53 75.932,52.808 76.028,52.52 Z M85.532,41.144 L94.364,41.144 L90.044,28.472 L89.9,28.472 L85.532,41.144 Z M117.308,53.528 C112.652,53.528 109.1,51.272 107.756,47.144 C107.276,45.704 107.036,43.88 107.036,41.432 C107.036,38.984 107.276,37.16 107.756,35.72 C109.1,31.592 112.652,29.336 117.308,29.336 C120.764,29.336 123.5,30.728 125.324,32.936 C125.468,33.128 125.516,33.416 125.276,33.608 L122.252,36.248 C122.012,36.44 121.772,36.392 121.58,36.152 C120.428,34.856 119.228,34.136 117.308,34.136 C115.244,34.136 113.66,35.144 112.988,37.16 C112.604,38.312 112.508,39.656 112.508,41.432 C112.508,43.208 112.604,44.6 112.988,45.752 C113.66,47.72 115.244,48.728 117.308,48.728 C119.228,48.728 120.428,48.008 121.58,46.712 C121.772,46.472 122.012,46.472 122.252,46.664 L125.276,49.304 C125.516,49.496 125.468,49.736 125.324,49.976 C123.5,52.136 120.764,53.528 117.308,53.528 Z M140.108,53.528 C135.452,53.528 131.9,51.272 130.556,47.144 C130.076,45.704 129.836,43.88 129.836,41.432 C129.836,38.984 130.076,37.16 130.556,35.72 C131.9,31.592 135.452,29.336 140.108,29.336 C143.564,29.336 146.3,30.728 148.124,32.936 C148.268,33.128 148.316,33.416 148.076,33.608 L145.052,36.248 C144.812,36.44 144.572,36.392 144.38,36.152 C143.228,34.856 142.028,34.136 140.108,34.136 C138.044,34.136 136.46,35.144 135.788,37.16 C135.404,38.312 135.308,39.656 135.308,41.432 C135.308,43.208 135.404,44.6 135.788,45.752 C136.46,47.72 138.044,48.728 140.108,48.728 C142.028,48.728 143.228,48.008 144.38,46.712 C144.572,46.472 144.812,46.472 145.052,46.664 L148.076,49.304 C148.316,49.496 148.268,49.736 148.124,49.976 C146.3,52.136 143.564,53.528 140.108,53.528 Z M162.956,53.528 C158.252,53.528 154.7,51.176 153.404,47.144 C152.876,45.512 152.636,43.976 152.636,41.432 C152.636,38.888 152.876,37.352 153.404,35.72 C154.7,31.688 158.252,29.336 162.956,29.336 C167.612,29.336 171.164,31.688 172.46,35.72 C172.988,37.352 173.228,38.888 173.228,41.432 C173.228,43.976 172.988,45.512 172.46,47.144 C171.164,51.176 167.612,53.528 162.956,53.528 Z M162.956,48.728 C165.116,48.728 166.604,47.624 167.276,45.704 C167.66,44.504 167.756,43.4 167.756,41.432 C167.756,39.464 167.66,38.408 167.276,37.16 C166.604,35.24 165.116,34.136 162.956,34.136 C160.796,34.136 159.26,35.24 158.588,37.16 C158.204,38.408 158.108,39.464 158.108,41.432 C158.108,43.4 158.204,44.504 158.588,45.704 C159.26,47.624 160.796,48.728 162.956,48.728 Z M197.612,53 L193.196,53 C192.908,53 192.716,52.808 192.716,52.52 L192.716,50.84 L192.668,50.84 C191.42,52.424 189.596,53.528 186.668,53.528 C181.724,53.528 178.7,49.88 178.7,44.936 L178.7,30.344 C178.7,30.056 178.892,29.864 179.18,29.864 L183.596,29.864 C183.884,29.864 184.076,30.056 184.076,30.344 L184.076,43.688 C184.076,46.664 185.468,48.728 188.396,48.728 C191.132,48.728 192.716,46.664 192.716,43.736 L192.716,30.344 C192.716,30.056 192.908,29.864 193.196,29.864 L197.612,29.864 C197.9,29.864 198.092,30.056 198.092,30.344 L198.092,52.52 C198.092,52.808 197.9,53 197.612,53 Z M224.156,53 L219.74,53 C219.452,53 219.26,52.808 219.26,52.52 L219.26,39.176 C219.26,36.2 217.772,34.136 214.892,34.136 C212.108,34.136 210.476,36.2 210.476,39.176 L210.476,52.52 C210.476,52.808 210.284,53 209.996,53 L205.58,53 C205.292,53 205.1,52.808 205.1,52.52 L205.1,30.344 C205.1,30.056 205.292,29.864 205.58,29.864 L209.996,29.864 C210.284,29.864 210.476,30.056 210.476,30.344 L210.476,32.024 L210.524,32.024 C211.532,30.584 213.548,29.336 216.62,29.336 C221.564,29.336 224.636,32.984 224.636,37.928 L224.636,52.52 C224.636,52.808 224.444,53 224.156,53 Z M240.476,53.288 L238.172,53.288 C233.516,53.288 231.74,51.032 231.74,46.52 L231.74,34.328 C231.74,34.136 231.644,34.04 231.452,34.04 L229.916,34.04 C229.628,34.04 229.436,33.848 229.436,33.56 L229.436,30.344 C229.436,30.056 229.628,29.864 229.916,29.864 L231.452,29.864 C231.644,29.864 231.74,29.768 231.74,29.576 L231.74,23.24 C231.74,22.952 231.932,22.76 232.22,22.76 L236.636,22.76 C236.924,22.76 237.116,22.952 237.116,23.24 L237.116,29.576 C237.116,29.768 237.212,29.864 237.404,29.864 L240.476,29.864 C240.764,29.864 240.956,30.056 240.956,30.344 L240.956,33.56 C240.956,33.848 240.764,34.04 240.476,34.04 L237.404,34.04 C237.212,34.04 237.116,34.136 237.116,34.328 L237.116,46.328 C237.116,47.96 237.788,48.488 239.276,48.488 L240.476,48.488 C240.764,48.488 240.956,48.68 240.956,48.968 L240.956,52.808 C240.956,53.096 240.764,53.288 240.476,53.288 Z M270.14,53 L266.204,53 C265.916,53 265.724,52.808 265.628,52.52 L255.308,20.84 C255.212,20.552 255.404,20.36 255.692,20.36 L260.348,20.36 C260.684,20.36 260.876,20.504 260.972,20.84 L268.268,43.976 L268.412,43.976 L275.42,20.84 C275.516,20.504 275.708,20.36 276.044,20.36 L280.7,20.36 C280.988,20.36 281.18,20.552 281.084,20.84 L270.716,52.52 C270.62,52.808 270.428,53 270.14,53 Z M290.156,25.496 L285.74,25.496 C285.452,25.496 285.26,25.304 285.26,25.016 L285.26,20.84 C285.26,20.552 285.452,20.36 285.74,20.36 L290.156,20.36 C290.444,20.36 290.636,20.552 290.636,20.84 L290.636,25.016 C290.636,25.304 290.444,25.496 290.156,25.496 Z M290.156,53 L285.74,53 C285.452,53 285.26,52.808 285.26,52.52 L285.26,30.344 C285.26,30.056 285.452,29.864 285.74,29.864 L290.156,29.864 C290.444,29.864 290.636,30.056 290.636,30.344 L290.636,52.52 C290.636,52.808 290.444,53 290.156,53 Z M306.188,53.528 C301.436,53.528 298.172,51.656 296.252,49.88 C296.06,49.688 296.06,49.4 296.252,49.208 L298.988,46.328 C299.18,46.136 299.468,46.136 299.66,46.328 C301.34,47.864 304.028,48.968 306.428,48.968 C309.26,48.968 310.7,47.816 310.7,46.232 C310.7,44.84 309.884,43.976 306.86,43.688 L304.364,43.448 C299.66,42.968 297.26,40.568 297.26,36.632 C297.26,32.168 300.476,29.336 306.236,29.336 C309.836,29.336 312.86,30.536 314.924,32.168 C315.164,32.36 315.164,32.648 315.02,32.84 L312.668,35.672 C312.476,35.912 312.236,35.912 311.996,35.768 C310.556,34.76 308.252,33.848 305.948,33.848 C303.644,33.848 302.444,34.856 302.444,36.248 C302.444,37.592 303.26,38.408 306.236,38.696 L308.732,38.936 C313.58,39.416 315.884,41.912 315.884,45.704 C315.884,50.312 312.524,53.528 306.188,53.528 Z M326.444,25.496 L322.028,25.496 C321.74,25.496 321.548,25.304 321.548,25.016 L321.548,20.84 C321.548,20.552 321.74,20.36 322.028,20.36 L326.444,20.36 C326.732,20.36 326.924,20.552 326.924,20.84 L326.924,25.016 C326.924,25.304 326.732,25.496 326.444,25.496 Z M326.444,53 L322.028,53 C321.74,53 321.548,52.808 321.548,52.52 L321.548,30.344 C321.548,30.056 321.74,29.864 322.028,29.864 L326.444,29.864 C326.732,29.864 326.924,30.056 326.924,30.344 L326.924,52.52 C326.924,52.808 326.732,53 326.444,53 Z M343.004,53.528 C338.3,53.528 334.748,51.176 333.452,47.144 C332.924,45.512 332.684,43.976 332.684,41.432 C332.684,38.888 332.924,37.352 333.452,35.72 C334.748,31.688 338.3,29.336 343.004,29.336 C347.66,29.336 351.212,31.688 352.508,35.72 C353.036,37.352 353.276,38.888 353.276,41.432 C353.276,43.976 353.036,45.512 352.508,47.144 C351.212,51.176 347.66,53.528 343.004,53.528 Z M343.004,48.728 C345.164,48.728 346.652,47.624 347.324,45.704 C347.708,44.504 347.804,43.4 347.804,41.432 C347.804,39.464 347.708,38.408 347.324,37.16 C346.652,35.24 345.164,34.136 343.004,34.136 C340.844,34.136 339.308,35.24 338.636,37.16 C338.252,38.408 338.156,39.464 338.156,41.432 C338.156,43.4 338.252,44.504 338.636,45.704 C339.308,47.624 340.844,48.728 343.004,48.728 Z M378.092,53 L373.676,53 C373.388,53 373.196,52.808 373.196,52.52 L373.196,39.176 C373.196,36.2 371.708,34.136 368.828,34.136 C366.044,34.136 364.412,36.2 364.412,39.176 L364.412,52.52 C364.412,52.808 364.22,53 363.932,53 L359.516,53 C359.228,53 359.036,52.808 359.036,52.52 L359.036,30.344 C359.036,30.056 359.228,29.864 359.516,29.864 L363.932,29.864 C364.22,29.864 364.412,30.056 364.412,30.344 L364.412,32.024 L364.46,32.024 C365.468,30.584 367.484,29.336 370.556,29.336 C375.5,29.336 378.572,32.984 378.572,37.928 L378.572,52.52 C378.572,52.808 378.38,53 378.092,53 Z" id="Account-Vision-Copy-2" fill="#FFFFFF"></path>
            <g id="Group-Copy" stroke="#6AFEF0">
                <polygon id="Path" stroke-width="2" points="0 7.07309692 70 0 53.246889 61 18.6838349 54.7682338"></polygon>
                <path d="M0.582763672,7.05151367 L53.0410156,60.2651367" id="Line" stroke-width="0.5" stroke-linecap="square"></path>
            </g>
        </g>
    </g>
</svg>