<?xml version="1.0" standalone="no"?>
<!DOCTYPE svg PUBLIC "-//W3C//DTD SVG 20010904//EN"
 "http://www.w3.org/TR/2001/REC-SVG-20010904/DTD/svg10.dtd">
<svg version="1.0" xmlns="http://www.w3.org/2000/svg"
 width="672.000000pt" height="672.000000pt" viewBox="0 0 672.000000 672.000000"
 preserveAspectRatio="xMidYMid meet">
<metadata>
Created by potrace 1.11, written by Peter Selinger 2001-2013
</metadata>
<g transform="translate(0.000000,672.000000) scale(0.100000,-0.100000)"
fill="#000000" stroke="none">
<path d="M6586 6362 c-2 -1 -23 -4 -47 -6 -43 -4 -136 -14 -214 -22 -22 -2
-65 -6 -95 -9 -54 -5 -110 -10 -200 -20 -25 -2 -74 -7 -110 -10 -36 -3 -81 -8
-100 -10 -39 -5 -138 -14 -215 -20 -27 -2 -50 -5 -50 -6 0 -1 -13 -2 -30 -4
-146 -13 -196 -17 -230 -21 -83 -8 -151 -15 -190 -19 -75 -6 -160 -15 -205
-19 -43 -5 -104 -11 -195 -20 -139 -14 -183 -18 -205 -21 -14 -1 -56 -5 -95
-9 -38 -3 -92 -9 -120 -12 -114 -12 -143 -14 -200 -19 -33 -2 -80 -7 -105 -10
-51 -6 -117 -12 -210 -20 -36 -3 -83 -8 -105 -10 -22 -3 -60 -7 -85 -10 -67
-6 -169 -16 -220 -21 -59 -6 -109 -11 -200 -19 -41 -3 -87 -8 -101 -11 -15 -2
-60 -6 -100 -9 -41 -3 -90 -7 -109 -10 -40 -5 -105 -12 -205 -20 -38 -3 -83
-8 -100 -10 -16 -2 -57 -6 -90 -10 -33 -3 -78 -8 -100 -10 -22 -3 -69 -7 -105
-10 -36 -3 -87 -8 -115 -11 -27 -3 -70 -7 -95 -9 -43 -4 -104 -10 -200 -20
-25 -3 -70 -7 -100 -10 -62 -6 -145 -14 -205 -20 -22 -2 -69 -6 -105 -10 -36
-3 -85 -8 -110 -10 -95 -10 -166 -17 -200 -20 -19 -2 -60 -6 -90 -9 -58 -6
-119 -12 -210 -21 -30 -3 -75 -7 -100 -10 -25 -3 -76 -8 -115 -11 -38 -4 -81
-8 -95 -9 -14 -2 -59 -6 -100 -9 -41 -4 -91 -9 -110 -11 -19 -2 -64 -7 -100
-11 -36 -3 -65 -7 -66 -7 0 -1 -30 -46 -66 -99 l-66 -97 14 -53 c7 -29 29
-109 49 -178 20 -69 42 -147 50 -175 8 -27 46 -162 85 -300 40 -137 73 -257
75 -265 2 -8 18 -62 35 -120 34 -116 58 -199 70 -245 4 -16 16 -57 26 -90 10
-33 19 -63 20 -67 1 -5 2 -9 4 -10 1 -2 3 -10 5 -19 1 -9 11 -43 20 -75 9 -33
19 -66 21 -74 2 -8 10 -37 18 -65 60 -209 138 -483 141 -495 2 -8 26 -94 54
-190 28 -96 57 -197 65 -225 8 -27 26 -88 39 -135 14 -47 28 -98 33 -115 11
-42 11 -45 14 -47 1 -2 3 -10 5 -18 2 -8 38 -136 80 -284 43 -149 78 -275 80
-280 1 -6 5 -18 8 -26 8 -21 76 -259 83 -289 2 -13 31 -114 63 -225 32 -110
69 -238 81 -284 22 -76 29 -87 84 -141 59 -56 72 -63 154 -76 18 -3 65 -12
105 -21 39 -9 81 -17 92 -19 11 -2 31 -6 45 -9 13 -3 42 -8 64 -12 22 -3 44
-7 47 -10 4 -2 22 -6 40 -8 19 -3 66 -11 104 -19 76 -16 165 -34 205 -42 14
-3 39 -8 55 -11 17 -4 39 -8 50 -10 11 -1 94 -18 185 -37 91 -20 185 -38 210
-42 24 -4 47 -8 50 -10 3 -2 23 -6 45 -9 22 -4 47 -8 55 -11 8 -2 26 -6 40 -9
14 -3 36 -8 50 -11 14 -3 39 -8 55 -10 17 -3 37 -8 45 -10 8 -2 31 -7 50 -9
19 -3 112 -21 205 -40 94 -19 184 -37 200 -40 17 -3 41 -8 55 -11 47 -10 125
-26 145 -30 11 -2 31 -6 45 -9 14 -4 39 -9 55 -11 17 -3 37 -8 45 -10 8 -3 31
-7 50 -9 19 -3 46 -8 60 -11 14 -3 36 -8 50 -11 107 -21 480 -96 500 -100 67
-15 78 -13 144 26 38 22 72 40 76 40 17 0 40 43 79 150 23 63 49 133 58 155 8
22 19 49 23 60 13 33 111 299 114 310 2 6 9 24 15 40 7 17 14 35 15 40 2 6 6
19 11 30 41 105 74 194 78 210 3 11 35 99 72 195 56 146 215 575 261 700 7 19
74 199 149 400 75 201 138 370 139 375 3 12 23 61 35 90 5 11 48 128 97 260
48 132 92 251 97 265 6 14 11 28 12 33 2 4 4 9 5 12 1 3 3 8 4 13 1 4 10 24
19 46 9 21 17 43 17 48 0 5 9 30 19 56 23 57 33 84 36 97 3 9 29 78 50 130 4
11 9 25 11 30 1 6 39 107 84 225 45 118 83 222 85 230 2 8 4 16 5 18 2 1 3 5
5 10 1 4 6 18 12 32 5 14 38 102 72 195 35 94 69 185 78 203 8 18 16 40 18 50
2 9 22 64 45 122 23 58 43 112 45 120 2 8 20 58 40 110 20 52 45 120 56 150
10 30 21 61 24 68 2 7 5 14 5 17 1 3 7 20 15 39 12 28 15 91 15 304 0 307 3
297 -82 297 -27 0 -51 -1 -52 -3z m-124 -337 c3 -3 -8 -38 -24 -78 -16 -40
-31 -79 -33 -87 -2 -8 -38 -105 -80 -215 -42 -110 -78 -207 -80 -215 -2 -8
-16 -44 -30 -80 -15 -36 -31 -81 -37 -100 -5 -19 -16 -48 -23 -65 -16 -38 -51
-131 -165 -440 -50 -137 -96 -259 -100 -270 -8 -18 -115 -306 -212 -570 -22
-60 -45 -121 -51 -135 -5 -14 -11 -29 -13 -35 -3 -14 -123 -335 -134 -360 -5
-11 -18 -47 -30 -80 -11 -33 -25 -69 -29 -80 -5 -11 -21 -51 -35 -90 -13 -38
-70 -191 -126 -340 -56 -148 -102 -274 -104 -280 -2 -5 -6 -19 -10 -30 -5 -11
-20 -54 -36 -95 -15 -41 -44 -118 -63 -170 -76 -202 -257 -692 -311 -840 -32
-85 -61 -165 -67 -178 -5 -13 -25 -67 -45 -120 -56 -153 -75 -205 -89 -237 -7
-16 -15 -39 -17 -49 -2 -15 -24 4 -93 85 -50 57 -102 118 -117 134 -14 17 -57
66 -95 110 -83 97 -112 130 -138 160 -11 12 -38 44 -60 70 -22 27 -45 53 -51
59 -11 11 -115 133 -150 174 -10 13 -32 38 -49 56 -16 18 -39 44 -50 57 -24
28 -267 310 -306 354 -32 36 -113 130 -143 165 -40 48 -141 165 -146 170 -3 3
-32 37 -64 75 -33 39 -64 75 -70 80 -6 6 -35 39 -65 75 -30 36 -62 72 -70 81
-9 8 -32 35 -51 59 -19 24 -42 51 -50 59 -9 9 -43 47 -75 86 -33 38 -64 75
-70 81 -5 6 -32 37 -60 69 -27 33 -61 71 -75 86 -14 15 -34 38 -44 51 -35 42
-121 141 -136 158 -13 13 -54 61 -133 154 -10 11 -28 32 -40 46 -12 14 -39 45
-61 70 -21 25 -62 72 -90 104 -76 88 -77 89 -131 152 -27 32 -58 65 -67 73 -9
8 -15 18 -12 23 3 4 1 8 -4 8 -5 0 -39 35 -75 78 -36 42 -78 91 -93 107 -14
17 -43 50 -63 75 -20 25 -41 50 -48 55 -6 6 -30 33 -53 60 -24 28 -66 77 -94
109 -28 32 -59 68 -69 80 -10 12 -37 44 -61 71 -25 28 -93 106 -152 175 -59
69 -112 130 -118 136 -6 6 -26 29 -44 52 -19 23 -44 52 -55 65 -12 13 -43 48
-69 78 -25 30 -56 65 -68 79 -12 14 -40 47 -63 74 -23 27 -60 69 -82 94 -42
47 -68 81 -63 83 22 5 112 15 213 24 17 1 62 6 100 10 39 4 84 9 100 10 66 5
172 16 205 20 19 2 67 7 105 10 39 3 86 8 105 10 19 2 62 6 95 9 33 4 80 8
105 11 25 2 72 7 105 10 33 3 78 7 100 10 22 2 65 7 95 9 30 3 80 8 110 11 30
3 75 7 100 10 25 2 70 6 101 10 61 6 121 12 214 20 33 4 76 8 95 10 19 2 67 7
105 10 39 4 84 8 100 10 17 2 62 6 100 9 39 3 93 9 120 12 28 4 61 8 75 9 142
14 191 18 225 21 22 1 63 5 90 8 134 14 164 17 210 21 72 7 133 13 190 19 28
3 82 9 120 12 89 8 114 11 200 19 39 4 89 8 112 9 24 0 43 3 43 6 0 3 17 5 38
6 20 0 66 4 102 8 36 4 94 9 129 12 66 6 116 12 116 14 0 0 27 3 60 5 33 2 85
6 115 9 30 4 80 9 110 12 30 3 71 7 90 9 19 2 70 7 113 10 43 4 86 8 96 10 10
2 54 6 97 10 43 4 95 9 114 11 19 1 64 6 100 9 36 3 81 8 100 10 19 2 64 7
100 10 36 3 81 8 100 10 39 5 138 14 215 20 28 2 50 5 50 6 0 1 14 2 30 4 140
13 175 16 210 20 22 2 78 7 125 10 47 4 87 9 89 11 6 6 37 5 43 -1z m-5972
-845 c40 -47 92 -107 116 -135 43 -51 49 -58 132 -154 26 -30 52 -59 57 -65 6
-6 39 -45 74 -86 36 -41 70 -79 76 -85 6 -5 20 -23 32 -38 17 -23 83 -98 138
-161 6 -6 51 -58 100 -116 50 -58 98 -114 108 -125 10 -11 33 -37 50 -58 18
-21 43 -51 57 -66 28 -31 82 -93 230 -266 57 -66 108 -124 114 -130 6 -5 31
-35 56 -65 25 -30 52 -62 60 -71 25 -27 116 -132 153 -176 19 -23 41 -48 48
-56 8 -7 34 -38 59 -67 25 -29 50 -58 55 -64 6 -6 35 -40 65 -76 30 -36 63
-74 73 -85 10 -11 33 -37 50 -59 18 -21 41 -48 53 -60 11 -11 49 -55 85 -96
35 -41 74 -86 86 -100 56 -65 67 -78 106 -124 23 -27 47 -54 52 -60 11 -11
130 -151 149 -174 6 -7 20 -23 32 -35 11 -12 47 -53 80 -92 32 -38 64 -75 69
-81 6 -6 35 -40 65 -75 30 -35 73 -84 95 -109 22 -26 63 -73 90 -104 28 -32
55 -64 60 -70 6 -6 55 -63 109 -126 54 -63 110 -128 125 -145 15 -16 58 -66
96 -110 38 -44 71 -82 74 -85 4 -3 26 -30 51 -60 25 -30 54 -64 65 -76 11 -12
31 -34 44 -50 14 -16 54 -63 90 -104 36 -42 86 -100 111 -129 25 -30 56 -66
70 -80 31 -33 90 -107 90 -113 0 -3 -28 2 -62 9 -35 8 -74 16 -88 19 -61 12
-227 45 -250 49 -14 3 -47 9 -75 15 -81 17 -94 19 -225 45 -69 14 -136 28
-150 30 -14 3 -37 7 -52 10 -15 2 -35 6 -45 9 -10 3 -29 7 -43 10 -34 6 -180
35 -205 40 -59 12 -332 67 -354 71 -14 2 -114 22 -222 44 -108 22 -209 43
-225 45 -16 3 -96 19 -179 36 -82 17 -161 33 -175 35 -20 4 -285 58 -340 69
-8 2 -34 7 -58 11 -34 5 -45 13 -53 32 -9 25 -75 251 -84 289 -2 10 -16 57
-30 104 -14 47 -27 94 -29 105 -2 11 -13 49 -24 85 -12 36 -28 90 -36 120 -8
30 -24 87 -36 125 -12 39 -23 77 -25 85 -7 31 -34 128 -60 215 -15 50 -28 95
-29 100 -2 6 -6 24 -10 40 -4 17 -10 37 -13 45 -3 8 -7 20 -9 25 -1 6 -9 35
-18 65 -8 30 -22 82 -31 115 -10 33 -20 67 -23 75 -3 8 -6 22 -8 30 -2 8 -17
62 -34 120 -17 58 -33 112 -35 120 -7 27 -66 234 -80 280 -16 53 -37 133 -37
140 0 3 -4 12 -9 21 -4 9 -11 29 -13 45 -3 16 -11 45 -17 64 -5 19 -28 98 -50
175 -23 77 -47 163 -55 190 -8 28 -17 58 -19 68 -2 9 -6 21 -9 25 -3 5 -8 23
-11 40 -3 18 -12 51 -19 75 -12 34 -35 113 -41 137 -1 4 -12 42 -45 160 -6 19
-26 89 -44 155 -19 66 -39 135 -45 153 -5 18 -10 33 -10 35 0 1 -2 9 -4 17
-22 70 -38 131 -43 155 -3 16 -7 32 -10 37 -11 17 -41 139 -34 136 4 -2 40
-41 80 -88z"/>
</g>
</svg>
